<svg xmlns="http://www.w3.org/2000/svg" xmlns:xlink="http://www.w3.org/1999/xlink" width="30" height="30" viewBox="0 0 30 30">
  <defs>
    <clipPath id="clip-linkArrow_default">
      <rect width="30" height="30"/>
    </clipPath>
  </defs>
  <g id="linkArrow_default" clip-path="url(#clip-linkArrow_default)">
    <rect width="30" height="30" fill="#fff"/>
    <path id="arrow-right-circle" d="M62,47a15,15,0,1,0-4.394,10.606A14.954,14.954,0,0,0,62,47Zm-2.727,0a12.272,12.272,0,1,1-3.595-8.678A12.228,12.228,0,0,1,59.273,47ZM41.545,48.364h7.617L46.036,51.49a1.363,1.363,0,1,0,1.928,1.928l5.455-5.455a1.362,1.362,0,0,0,.3-1.486,1.36,1.36,0,0,0-.3-.442l-5.455-5.455a1.363,1.363,0,0,0-1.928,1.928l3.127,3.127H41.545a1.364,1.364,0,0,0,0,2.727Z" transform="translate(-32 -32)" fill="#e8cb89"/>
  </g>
</svg>
